<svg width="37" height="28" viewBox="0 0 37 28" fill="none" xmlns="http://www.w3.org/2000/svg">
<g clip-path="url(#clip0_47_998)">
<path d="M35.9562 14.4781C35.9562 14.2826 35.8825 14.1226 35.7353 13.9804L23.2901 1.89282C23.0141 1.59063 22.8115 1.51953 22.609 1.51953C22.2041 1.51953 21.8911 1.82172 21.8911 2.19501C21.8911 2.39054 21.9464 2.56831 22.0936 2.69274L29.4392 9.80309L33.8392 13.9093L29.8073 13.8026H2.46862C2.08201 13.8026 1.76904 14.0871 1.76904 14.4781C1.76904 14.8692 2.08201 15.1536 2.46862 15.1536H29.8073L33.8392 15.0647L29.4392 19.1531L22.0936 26.2636C21.9646 26.3879 21.8911 26.5836 21.8911 26.7791C21.8911 27.1345 22.2041 27.4367 22.609 27.4367C22.8115 27.4367 22.9772 27.3657 23.1246 27.2234L35.7353 14.9759C35.8825 14.8337 35.9562 14.6737 35.9562 14.4781Z" fill="white"/>
</g>
<defs>
<clipPath id="clip0_47_998">
<rect width="35.8183" height="27.3037" fill="white" transform="translate(0.845703 0.453125)"/>
</clipPath>
</defs>
</svg>
